<?xml version="1.0" encoding="utf-8"?>
<!-- Generator: Adobe Illustrator 24.0.0, SVG Export Plug-In . SVG Version: 6.00 Build 0)  -->
<svg version="1.1" id="Layer_1" xmlns="http://www.w3.org/2000/svg" xmlns:xlink="http://www.w3.org/1999/xlink" x="0px" y="0px"
	 viewBox="0 0 618 451.4" style="enable-background:new 0 0 618 451.4;" xml:space="preserve">
<style type="text/css">
	.st0{fill:#FFC445;}
	.st1{fill:#43B2E5;}
</style>
<g>
	<circle class="st0" cx="225.7" cy="59" r="59"/>
	<path class="st1" d="M559,333.3c-16.3,0-31.1,6.6-41.8,17.3c-23,23-60.2,23-83.1,0c-23-23-23-60.2,0-83.1c23-23,60.2-23,83.1,0
		c10.7,10.7,25.4,17.3,41.8,17.3c32.6,0,59-26.4,59-59s-26.4-59-59-59c-16.3,0-31.1,6.6-41.8,17.3c-23,23-60.2,23-83.1,0
		s-23-60.2,0-83.1c10.7-10.7,17.3-25.4,17.3-41.8c0-32.6-26.4-59-59-59s-59,26.4-59,59c0,16.3,6.6,31.1,17.3,41.8
		c23,23,23,60.2,0,83.1c-10.7,10.7-17.3,25.4-17.3,41.8c0,16.3,6.6,31.1,17.3,41.8c23,23,23,60.2,0,83.1
		c-10.7,10.7-17.3,25.4-17.3,41.8c0,32.6,26.4,59,59,59c16.3,0,31.1-6.6,41.8-17.3c23-23,60.2-23,83.1,0
		c10.7,10.7,25.4,17.3,41.8,17.3c32.6,0,59-26.4,59-59C618,359.7,591.6,333.3,559,333.3z"/>
	<path class="st1" d="M284.7,225.7c0-32.6-26.4-59-59-59s-59,26.4-59,59c0,16.3,6.6,31.1,17.3,41.8c23,23,23,60.2,0,83.1
		c-23,23-60.2,23-83.1,0c-10.7-10.7-25.4-17.3-41.8-17.3c-32.6,0-59,26.4-59,59c0,32.6,26.4,59,59,59c16.3,0,31.1-6.6,41.8-17.3
		c23-23,60.2-23,83.1,0c10.7,10.7,25.4,17.3,41.8,17.3c32.6,0,59-26.4,59-59c0-16.3-6.6-31.1-17.3-41.8c-23-23-23-60.2,0-83.1
		C278.1,256.8,284.7,242,284.7,225.7z"/>
</g>
</svg>
