<?xml version="1.0" encoding="utf-8"?>
<!-- Generator: Adobe Illustrator 24.0.0, SVG Export Plug-In . SVG Version: 6.00 Build 0)  -->
<svg version="1.1" id="Layer_1" xmlns="http://www.w3.org/2000/svg" xmlns:xlink="http://www.w3.org/1999/xlink" x="0px" y="0px"
	 viewBox="0 0 475 107.6" style="enable-background:new 0 0 475 107.6;" xml:space="preserve">
<style type="text/css">
	.st0{fill:#FFC445;}
	.st1{fill:#43B2E5;}
	.st2{fill:#221F1F;}
</style>
<g>
	<g>
		<circle class="st0" cx="48.5" cy="12.7" r="12.7"/>
		<path class="st1" d="M120,71.6c-3.5,0-6.7,1.4-9,3.7c-4.9,4.9-12.9,4.9-17.9,0c-4.9-4.9-4.9-12.9,0-17.9s12.9-4.9,17.9,0
			c2.3,2.3,5.5,3.7,9,3.7c7,0,12.7-5.7,12.7-12.7S127,35.8,120,35.8c-3.5,0-6.7,1.4-9,3.7c-4.9,4.9-12.9,4.9-17.9,0
			s-4.9-12.9,0-17.9c2.3-2.3,3.7-5.5,3.7-9c0-7-5.7-12.7-12.7-12.7S71.6,5.7,71.6,12.7c0,3.5,1.4,6.7,3.7,9c4.9,4.9,4.9,12.9,0,17.9
			c-2.3,2.3-3.7,5.5-3.7,9c0,3.5,1.4,6.7,3.7,9c4.9,4.9,4.9,12.9,0,17.9c-2.3,2.3-3.7,5.5-3.7,9c0,7,5.7,12.7,12.7,12.7
			c3.5,0,6.7-1.4,9-3.7c4.9-4.9,12.9-4.9,17.9,0c2.3,2.3,5.5,3.7,9,3.7c7,0,12.7-5.7,12.7-12.7C132.7,77.2,127,71.6,120,71.6z"/>
		<path class="st1" d="M61.1,48.5c0-7-5.7-12.7-12.7-12.7s-12.7,5.7-12.7,12.7c0,3.5,1.4,6.7,3.7,9c4.9,4.9,4.9,12.9,0,17.9
			c-4.9,4.9-12.9,4.9-17.9,0c-2.3-2.3-5.5-3.7-9-3.7C5.7,71.6,0,77.2,0,84.2c0,7,5.7,12.7,12.7,12.7c3.5,0,6.7-1.4,9-3.7
			c4.9-4.9,12.9-4.9,17.9,0c2.3,2.3,5.5,3.7,9,3.7c7,0,12.7-5.7,12.7-12.7c0-3.5-1.4-6.7-3.7-9c-4.9-4.9-4.9-12.9,0-17.9
			C59.7,55.1,61.1,52,61.1,48.5z"/>
	</g>
	<g>
		<g>
			<path class="st2" d="M170,1c-1,0-1.9,0.3-2.7,0.8c-0.8,0.6-1.2,1.3-1.2,2.3c0,1,0.4,1.8,1.2,2.4c0.8,0.6,1.7,0.8,2.7,0.8
				c1,0,1.9-0.3,2.7-0.8c0.8-0.6,1.1-1.3,1.1-2.4c0-1-0.4-1.8-1.1-2.3C171.9,1.3,171,1,170,1z"/>
			<path class="st2" d="M166.6,40.1c0,0.5,0,1-0.1,1.5c-0.1,0.5-0.3,1-0.5,1.4c-0.3,0.4-0.7,0.8-1.2,1c-0.5,0.3-1.3,0.4-2.2,0.4
				c-0.5,0-0.9,0-1.4-0.1s-0.8-0.1-1-0.2v4.8c0.3,0,0.6,0.1,1,0.1c0.4,0,0.9,0,1.3,0c2.3,0,4.1-0.3,5.5-0.8c1.4-0.5,2.4-1.2,3.1-2
				s1.2-1.8,1.4-2.8c0.3-1,0.4-2.1,0.4-3.2V12.2h-6.4V40.1z"/>
			<path class="st2" d="M194.4,11.8c-2.1,0-4,0.5-5.7,1.4c-1.2,0.7-2.1,1.6-2.9,2.6V0h-6.4v38.1h6.4V23.6c0-1.2,0.3-2.3,0.8-3.3
				c0.5-0.9,1.2-1.7,2.2-2.2c0.9-0.5,2.1-0.8,3.4-0.8c2,0,3.4,0.6,4.3,1.7c0.8,1.1,1.3,2.8,1.3,4.9c0,0.4,0,0.9,0,1.5
				c0,0.6,0,1.2,0,1.8s0,1.1,0,1.5v9.3h6.4v-8.8c0-1.4,0-2.7,0-3.9c0-1.2,0-2.2,0-3c0-3.3-0.8-5.9-2.5-7.8
				C199.9,12.7,197.5,11.8,194.4,11.8z"/>
			<path class="st2" d="M234.9,36c-0.1-0.5-0.2-1-0.3-1.6c0-0.6-0.1-1.2-0.1-1.8v-9.7c0-0.3,0-0.7,0-1c0-0.3,0-0.7,0-1
				c0-2-0.6-3.7-1.7-5c-1.1-1.3-2.6-2.4-4.5-3c-1.9-0.7-3.9-1-6.1-1c-2.4,0-4.5,0.4-6.4,1.1c-1.9,0.7-3.4,1.8-4.4,3.2
				c-1.1,1.4-1.6,3.1-1.6,5.1h6.3c0-1.5,0.5-2.6,1.6-3.3c1-0.7,2.6-1,4.5-1c1.9,0,3.3,0.3,4.3,0.9c1,0.6,1.5,1.5,1.5,2.6
				c0,0,0,0,0,0c0,0.6-0.6,1-1.8,1.3c-1.2,0.3-3.2,0.5-6.2,0.8c-2,0.2-3.8,0.6-5.5,1.2c-1.6,0.6-2.9,1.5-3.9,2.7s-1.4,2.6-1.4,4.4
				c0,1.6,0.4,3,1.2,4.2c0.8,1.2,2,2,3.4,2.6c1.5,0.6,3.2,0.9,5.1,0.9c1.6,0,3.1-0.2,4.5-0.6c1.4-0.4,2.6-1,3.6-1.7
				c0.5-0.3,0.8-0.7,1.2-1.1c0.1,0.4,0.1,0.7,0.2,1.1c0.2,0.4,0.3,0.8,0.5,1.2c0.2,0.3,0.4,0.6,0.5,0.7h6.3
				c-0.1-0.1-0.3-0.4-0.5-0.7C235.2,37,235,36.5,234.9,36z M227.1,30.8c-0.7,0.9-1.6,1.7-2.8,2.1c-1.1,0.5-2.4,0.7-3.7,0.7
				c-1.6,0-2.9-0.3-3.7-0.8c-0.8-0.5-1.2-1.3-1.2-2.4c0-1.1,0.5-1.9,1.4-2.4s2.4-0.8,4.3-1c1.5-0.1,3-0.3,4.4-0.6
				c0.8-0.1,1.5-0.3,2.2-0.5v1.2C228.2,28.6,227.8,29.8,227.1,30.8z"/>
		</g>
		<g>
			<path class="st2" d="M170.6,62.1h-4.2V68c0,0.6,0,1.2,0,1.5c0,0.4-0.1,0.6-0.3,0.8c-0.1,0.2-0.4,0.3-0.7,0.3
				c-0.3,0-0.7,0.1-1.3,0.1h-4v3.7h6.3v13.9c0,0.4,0,0.8,0,1.2c0,0.4,0,0.7,0,1.1c0,1.3,0.2,2.4,0.5,3.3c0.4,0.9,0.8,1.5,1.4,2
				c0.6,0.5,1.3,0.8,2.1,1c0.8,0.2,1.5,0.3,2.3,0.3c0.6,0,1.2,0,1.7-0.1c0.5-0.1,0.9-0.2,1.2-0.3v-3.6c-0.2,0.1-0.5,0.2-0.9,0.2
				c-0.4,0.1-0.9,0.1-1.3,0.1c-1.2,0-1.9-0.4-2.3-1.2c-0.3-0.8-0.5-1.9-0.5-3.2c0-0.3,0-0.6,0-1c0-0.3,0-0.7,0-1V74.3h8.1v-3.7h-8.1
				V62.1z"/>
			<path class="st2" d="M202.2,72c-1.9-1.1-4.2-1.7-6.8-1.7c-2.6,0-4.8,0.6-6.8,1.7c-2,1.1-3.6,2.7-4.7,4.7c-1.1,2-1.7,4.3-1.7,7
				c0,2.6,0.6,4.9,1.7,6.9c1.1,2,2.7,3.6,4.7,4.7c2,1.1,4.3,1.7,6.9,1.7c2,0,3.7-0.3,5.2-0.8c1.5-0.5,2.8-1.2,3.8-2
				c1-0.8,1.8-1.8,2.4-2.8c0.6-1,0.9-2.1,1-3.1h-4.1c-0.1,0.6-0.3,1.1-0.6,1.7c-0.3,0.6-0.8,1.1-1.5,1.6c-0.7,0.5-1.5,0.9-2.5,1.1
				c-1,0.3-2.2,0.4-3.6,0.4c-1.9,0-3.6-0.4-5-1.2c-1.4-0.8-2.5-1.9-3.2-3.3c-0.5-1-0.8-2.2-1-3.5h21.7c0-0.1,0.1-0.4,0.1-0.9
				c0-0.4,0-0.8,0-1c0-2.5-0.5-4.8-1.6-6.7C205.6,74.7,204.1,73.1,202.2,72z M190.6,75.2c1.4-0.8,3-1.2,4.8-1.2
				c1.8,0,3.3,0.4,4.6,1.1c1.2,0.7,2.2,1.7,2.8,3c0.5,1,0.8,2.2,0.9,3.4h-17.3c0.2-1.1,0.5-2.2,1-3.1
				C188.1,77.1,189.2,76,190.6,75.2z"/>
			<path class="st2" d="M235.7,73.5c-1-1-2.3-1.7-3.7-2.3c-1.5-0.6-3.2-0.9-5-0.9c-2.5,0-4.7,0.5-6.7,1.6c-2,1.1-3.6,2.6-4.8,4.6
				c-1.2,2-1.8,4.4-1.8,7.1s0.6,5.2,1.8,7.2c1.2,2,2.8,3.6,4.8,4.6c2,1.1,4.3,1.6,6.7,1.6c1.9,0,3.7-0.3,5.1-0.9
				c1.5-0.6,2.7-1.3,3.7-2.3c1-1,1.8-2,2.3-3.2c0.5-1.2,0.8-2.3,0.8-3.5h-4.1c-0.1,1.1-0.4,2-1,3c-0.6,0.9-1.4,1.7-2.6,2.2
				c-1.1,0.6-2.6,0.8-4.3,0.8c-1.6,0-3.1-0.4-4.5-1.1c-1.4-0.7-2.5-1.8-3.3-3.2c-0.8-1.4-1.2-3.2-1.2-5.3c0-2.1,0.4-3.9,1.3-5.3
				c0.8-1.4,1.9-2.5,3.3-3.1c1.4-0.7,2.9-1,4.5-1c1.4,0,2.7,0.2,3.8,0.7c1.1,0.5,2,1.1,2.7,1.9c0.7,0.8,1.1,1.8,1.2,2.9
				c0,0.1,0,0.2,0,0.3c0,0.1,0,0.2,0,0.3h4.1c0,0,0-0.1,0-0.1s0-0.1,0-0.1c0-1.1-0.3-2.3-0.8-3.4C237.5,75.5,236.7,74.4,235.7,73.5z
				"/>
			<path class="st2" d="M257.9,70.3c-2.1,0-4,0.4-5.7,1.4c-1.1,0.6-2,1.4-2.8,2.2V58.5h-4.1v38.1h4.1V81.1c0-1.3,0.3-2.5,1-3.5
				c0.6-1,1.6-1.9,2.7-2.5c1.2-0.6,2.5-0.9,4.1-0.9c2.3,0,4,0.6,5.1,1.9c1.1,1.3,1.6,3.1,1.6,5.6c0,0.5,0,1,0,1.6c0,0.6,0,1.3,0,1.9
				c0,0.6,0,1.2,0,1.6v9.6h4.1v-9.2c0-1.2,0-2.4,0-3.5c0-1.1,0-2.1,0-3c0-3.3-0.9-5.9-2.7-7.7C263.5,71.2,261,70.3,257.9,70.3z"/>
			<path class="st2" d="M293.1,71.4c-1.5-0.8-3.2-1.1-5.2-1.1c-2,0-3.8,0.5-5.4,1.5c-1.3,0.7-2.3,1.7-3.1,2.9v-3.9h-4.1v25.9h4.1
				V82.2c0-1.5,0.4-2.8,1.1-4c0.7-1.2,1.6-2.1,2.8-2.8c1.2-0.7,2.5-1.1,3.8-1.1c1.6,0,2.8,0.3,3.8,0.8c1,0.6,1.7,1.3,2.1,2.3
				c0.5,1,0.7,2.2,0.7,3.5c0,0.4,0,0.9,0,1.4c0,0.5,0,1.1,0,1.8v12.4h4.1v-12c0-0.7,0-1.5,0-2.4c0-0.8,0-1.6,0-2.3
				c0-2-0.4-3.7-1.2-5.1S294.6,72.2,293.1,71.4z"/>
			<path class="st2" d="M324.1,72c-2-1.1-4.3-1.7-6.9-1.7c-2.6,0-4.9,0.6-6.9,1.7c-2,1.1-3.5,2.7-4.7,4.7c-1.1,2-1.7,4.3-1.7,6.9
				c0,2.6,0.6,4.9,1.7,6.9c1.1,2,2.7,3.6,4.7,4.8c2,1.2,4.3,1.7,6.9,1.7c2.6,0,4.9-0.6,6.9-1.7c2-1.2,3.5-2.8,4.7-4.8
				c1.1-2,1.7-4.3,1.7-6.9c0-2.6-0.6-4.9-1.7-6.9C327.7,74.7,326.1,73.2,324.1,72z M325.2,88.7c-0.8,1.4-1.8,2.6-3.2,3.4
				s-2.9,1.2-4.7,1.2c-1.8,0-3.3-0.4-4.7-1.2c-1.4-0.8-2.4-1.9-3.2-3.4c-0.8-1.4-1.2-3.1-1.2-5.1c0-1.9,0.4-3.6,1.2-5
				c0.8-1.4,1.8-2.5,3.2-3.3c1.4-0.8,2.9-1.2,4.7-1.2c1.8,0,3.4,0.4,4.7,1.2c1.4,0.8,2.4,1.9,3.2,3.3c0.8,1.4,1.2,3.1,1.2,5
				C326.3,85.5,325.9,87.2,325.2,88.7z"/>
			<rect x="337.3" y="58.5" class="st2" width="4.1" height="38.1"/>
			<path class="st2" d="M368.1,72c-2-1.1-4.3-1.7-6.9-1.7c-2.6,0-4.9,0.6-6.9,1.7c-2,1.1-3.5,2.7-4.7,4.7c-1.1,2-1.7,4.3-1.7,6.9
				c0,2.6,0.6,4.9,1.7,6.9c1.1,2,2.7,3.6,4.7,4.8c2,1.2,4.3,1.7,6.9,1.7c2.6,0,4.9-0.6,6.9-1.7c2-1.2,3.5-2.8,4.7-4.8
				c1.1-2,1.7-4.3,1.7-6.9c0-2.6-0.6-4.9-1.7-6.9C371.6,74.7,370.1,73.2,368.1,72z M369.1,88.7c-0.8,1.4-1.8,2.6-3.2,3.4
				s-2.9,1.2-4.7,1.2c-1.8,0-3.3-0.4-4.7-1.2c-1.4-0.8-2.4-1.9-3.2-3.4c-0.8-1.4-1.2-3.1-1.2-5.1c0-1.9,0.4-3.6,1.2-5
				c0.8-1.4,1.8-2.5,3.2-3.3c1.4-0.8,2.9-1.2,4.7-1.2c1.8,0,3.4,0.4,4.7,1.2c1.4,0.8,2.4,1.9,3.2,3.3c0.8,1.4,1.2,3.1,1.2,5
				C370.3,85.5,369.9,87.2,369.1,88.7z"/>
			<path class="st2" d="M386.1,90c1.6,0.7,3.5,1.1,5.6,1.1c2.4,0,4.3-0.4,5.9-1.4c1.6-0.9,2.9-2.1,3.8-3.7c0.9-1.5,1.5-3.3,1.8-5.1
				l1.6-10.2H401l-0.5,3.6c-0.1-0.1-0.2-0.3-0.3-0.4c-0.9-1-2-1.9-3.5-2.6c-1.5-0.7-3.2-1-5.2-1c-2.2,0-4.2,0.5-5.9,1.4
				c-1.7,0.9-3.1,2.2-4,3.8s-1.4,3.4-1.4,5.3c0,1.9,0.5,3.7,1.4,5.2c0.5,0.8,1.1,1.6,1.8,2.2c-0.2,0.1-0.5,0.3-0.8,0.6
				c-0.5,0.5-1,1.1-1.3,1.8c-0.4,0.7-0.6,1.4-0.6,2.2c0,1.3,0.5,2.3,1.5,3.2c1,0.9,2.4,1.4,4,1.5l9.8,0.7c1.3,0.1,2.4,0.3,3.3,0.5
				c0.9,0.3,1.3,0.9,1.3,2c0,0.7-0.3,1.3-0.9,1.8s-1.6,0.9-2.9,1.2c-1.3,0.3-3,0.4-5,0.4c-2.7,0-4.8-0.3-6.3-0.8
				c-1.5-0.5-2.2-1.4-2.2-2.7c0-0.5,0.1-0.9,0.2-1.3s0.2-0.6,0.4-0.8l-3.9-0.6c-0.2,0.3-0.4,0.7-0.5,1.2c-0.2,0.5-0.2,1.1-0.2,1.7
				c0,2.1,1,3.7,3.1,4.9c2.1,1.2,5.2,1.8,9.3,1.8c2.9,0,5.3-0.3,7.2-0.9c1.9-0.6,3.3-1.4,4.3-2.5c0.9-1.1,1.4-2.3,1.4-3.7
				c0-1.3-0.3-2.3-0.9-3c-0.6-0.8-1.4-1.4-2.5-1.8c-1.1-0.4-2.3-0.7-3.7-0.8l-9.1-0.7c-1.4-0.1-2.3-0.4-2.8-0.7
				c-0.5-0.4-0.7-0.9-0.7-1.5c0-0.7,0.3-1.2,0.9-1.7C385.8,90.1,386,90.1,386.1,90z M385.1,77.2c0.6-1,1.5-1.8,2.7-2.3
				c1.1-0.6,2.5-0.8,4-0.8c1.6,0,2.9,0.3,4,0.8c1.1,0.5,2,1.3,2.6,2.3c0.6,1,0.9,2.2,0.9,3.5c0,1.4-0.3,2.6-0.9,3.6
				c-0.6,1-1.5,1.7-2.6,2.3c-1.1,0.5-2.5,0.8-4.1,0.8s-2.9-0.3-4.1-0.8c-1.1-0.5-2-1.3-2.6-2.3c-0.6-1-0.9-2.2-0.9-3.5
				C384.2,79.4,384.5,78.2,385.1,77.2z"/>
			<path class="st2" d="M412.9,59.9c-0.8,0-1.4,0.2-2,0.6c-0.6,0.4-0.8,1-0.8,1.7c0,0.7,0.3,1.3,0.8,1.8c0.6,0.4,1.2,0.6,2,0.6
				c0.8,0,1.4-0.2,2-0.6c0.6-0.4,0.8-1,0.8-1.8c0-0.7-0.3-1.3-0.8-1.7C414.3,60.2,413.6,59.9,412.9,59.9z"/>
			<rect x="410.8" y="70.7" class="st2" width="4.1" height="25.9"/>
			<path class="st2" d="M441.7,72c-1.9-1.1-4.2-1.7-6.8-1.7c-2.6,0-4.8,0.6-6.8,1.7c-2,1.1-3.6,2.7-4.7,4.7c-1.1,2-1.7,4.3-1.7,7
				c0,2.6,0.6,4.9,1.7,6.9c1.1,2,2.7,3.6,4.7,4.7c2,1.1,4.3,1.7,6.9,1.7c2,0,3.7-0.3,5.2-0.8s2.8-1.2,3.8-2c1-0.8,1.8-1.8,2.4-2.8
				c0.6-1,0.9-2.1,1-3.1h-4.1c-0.1,0.6-0.3,1.1-0.6,1.7c-0.3,0.6-0.8,1.1-1.5,1.6c-0.7,0.5-1.5,0.9-2.5,1.1s-2.2,0.4-3.6,0.4
				c-1.9,0-3.6-0.4-5-1.2c-1.4-0.8-2.5-1.9-3.2-3.3c-0.5-1-0.8-2.2-1-3.5h21.7c0-0.1,0.1-0.4,0.1-0.9c0-0.4,0-0.8,0-1
				c0-2.5-0.5-4.8-1.6-6.7C445,74.7,443.6,73.1,441.7,72z M430.1,75.2c1.4-0.8,3-1.2,4.8-1.2c1.8,0,3.3,0.4,4.6,1.1
				c1.2,0.7,2.2,1.7,2.8,3c0.5,1,0.8,2.2,0.9,3.4h-17.3c0.2-1.1,0.5-2.2,1-3.1C427.6,77.1,428.7,76,430.1,75.2z"/>
			<path class="st2" d="M474.2,86.3c-0.5-0.9-1.3-1.6-2.2-2.2c-0.9-0.6-2-1-3.2-1.4c-1.2-0.4-2.5-0.7-3.8-0.9
				c-1.5-0.3-2.8-0.6-3.9-0.9c-1.1-0.3-2-0.8-2.6-1.3c-0.6-0.5-0.9-1.2-0.9-2.1c0-0.9,0.3-1.6,1-2.1c0.6-0.5,1.5-0.9,2.5-1.1
				c1-0.2,2-0.3,3-0.3c1.1,0,2.1,0.1,3.1,0.4c1,0.3,1.7,0.8,2.3,1.4c0.6,0.6,0.9,1.4,0.9,2.3c0,0.1,0,0.1,0,0.2c0,0,0,0.1,0,0.2h4.1
				c0-0.1,0-0.2,0-0.3c0-0.1,0-0.2,0-0.2c0-1.7-0.5-3.1-1.4-4.2c-1-1.1-2.2-2-3.8-2.6c-1.6-0.6-3.3-0.9-5.2-0.9
				c-1.9,0-3.7,0.3-5.3,0.9c-1.6,0.6-2.9,1.4-3.8,2.5c-0.9,1.1-1.4,2.4-1.4,4c0,1.2,0.3,2.3,0.8,3.1c0.5,0.9,1.3,1.6,2.2,2.2
				c0.9,0.6,2,1.1,3.2,1.4c1.2,0.4,2.4,0.7,3.7,0.9c2.5,0.4,4.4,0.9,5.6,1.5c1.3,0.6,1.9,1.5,1.9,2.9c0,0.8-0.3,1.5-0.9,2
				c-0.6,0.5-1.4,0.9-2.4,1.2s-2.2,0.4-3.5,0.4c-2.1,0-3.8-0.3-5-1c-1.2-0.7-1.8-1.7-1.8-3c0-0.1,0-0.2,0-0.3c0-0.1,0-0.1,0-0.2
				h-4.2c0,0.1,0,0.2,0,0.4s0,0.3,0,0.4c0,1.2,0.3,2.3,0.8,3.2c0.5,0.9,1.3,1.7,2.3,2.4c1,0.6,2.1,1.1,3.5,1.5
				c1.3,0.3,2.8,0.5,4.3,0.5c1.5,0,2.9-0.2,4.2-0.5c1.3-0.3,2.5-0.8,3.5-1.4c1-0.6,1.8-1.4,2.4-2.4c0.6-0.9,0.9-2,0.9-3.3
				C475,88.2,474.7,87.1,474.2,86.3z"/>
		</g>
	</g>
</g>
</svg>
